<svg width="369" height="192" viewBox="0 0 369 192" fill="none" xmlns="http://www.w3.org/2000/svg">
<path d="M40.1328 37.5391H26.3984V52H20.4688V17.875H42.1484V22.6562H26.3984V32.8047H40.1328V37.5391ZM61.4609 44.0547H48.2422L45.4766 52H39.3125L52.2031 17.875H57.5234L70.4375 52H64.25L61.4609 44.0547ZM49.9062 39.2734H59.7969L54.8516 25.1172L49.9062 39.2734ZM80.2578 47.2656H95.75V52H74.3281V17.875H80.2578V47.2656ZM120.242 36.7656H106.227V47.2656H122.609V52H100.297V17.875H122.445V22.6562H106.227V32.0781H120.242V36.7656Z" fill="white"/>
<path d="M151.156 71.875L161 98.0312L170.82 71.875H178.484V106H172.578V94.75L173.164 79.7031L163.086 106H158.844L148.789 79.7266L149.375 94.75V106H143.469V71.875H151.156ZM205.039 98.0547H191.82L189.055 106H182.891L195.781 71.875H201.102L214.016 106H207.828L205.039 98.0547ZM193.484 93.2734H203.375L198.43 79.1172L193.484 93.2734ZM224.164 106H218.258V71.875H224.164V106ZM249.289 97.2109C249.289 95.7109 248.758 94.5547 247.695 93.7422C246.648 92.9297 244.75 92.1094 242 91.2812C239.25 90.4531 237.062 89.5312 235.438 88.5156C232.328 86.5625 230.773 84.0156 230.773 80.875C230.773 78.125 231.891 75.8594 234.125 74.0781C236.375 72.2969 239.289 71.4062 242.867 71.4062C245.242 71.4062 247.359 71.8438 249.219 72.7188C251.078 73.5938 252.539 74.8438 253.602 76.4688C254.664 78.0781 255.195 79.8672 255.195 81.8359H249.289C249.289 80.0547 248.727 78.6641 247.602 77.6641C246.492 76.6484 244.898 76.1406 242.82 76.1406C240.883 76.1406 239.375 76.5547 238.297 77.3828C237.234 78.2109 236.703 79.3672 236.703 80.8516C236.703 82.1016 237.281 83.1484 238.438 83.9922C239.594 84.8203 241.5 85.6328 244.156 86.4297C246.812 87.2109 248.945 88.1094 250.555 89.125C252.164 90.125 253.344 91.2812 254.094 92.5938C254.844 93.8906 255.219 95.4141 255.219 97.1641C255.219 100.008 254.125 102.273 251.938 103.961C249.766 105.633 246.812 106.469 243.078 106.469C240.609 106.469 238.336 106.016 236.258 105.109C234.195 104.188 232.586 102.922 231.43 101.312C230.289 99.7031 229.719 97.8281 229.719 95.6875H235.648C235.648 97.625 236.289 99.125 237.57 100.188C238.852 101.25 240.688 101.781 243.078 101.781C245.141 101.781 246.688 101.367 247.719 100.539C248.766 99.6953 249.289 98.5859 249.289 97.2109Z" fill="white"/>
<rect x="124.394" y="17" width="17.2112" height="90" fill="white"/>
<rect x="88" y="70.6056" width="17.2112" height="90" transform="rotate(-90 88 70.6056)" fill="white"/>
</svg>
